<?xml version="1.0" encoding="utf-8"?>
<!-- Generator: Adobe Illustrator 25.1.0, SVG Export Plug-In . SVG Version: 6.00 Build 0)  -->
<svg version="1.1" id="Capa_1" xmlns="http://www.w3.org/2000/svg" xmlns:xlink="http://www.w3.org/1999/xlink" x="0px" y="0px"
	 viewBox="0 0 512 512" style="enable-background:new 0 0 512 512;" xml:space="preserve">
<style type="text/css">
	.st0{fill:#E7BDC4;}
</style>
<g>
	<g>
		<g>
			<circle class="st0" cx="381.4" cy="211.6" r="19.3"/>
			<path class="st0" d="M425.8,47.6h-25.1V28.3c0-10.7-8.6-19.3-19.3-19.3s-19.3,8.6-19.3,19.3v19.3h-87.8V28.3
				C274.3,17.6,265.7,9,255,9c-10.7,0-19.3,8.6-19.3,19.3v19.3h-86.8V28.3c0-10.7-8.6-19.3-19.3-19.3s-19.3,8.6-19.3,19.3v19.3H86.2
				C43.6,47.6,9,82.2,9,124.8v301C9,468.4,43.6,503,86.2,503h147.6c10.7,0,19.3-8.6,19.3-19.3s-8.6-19.3-19.3-19.3H86.2
				c-21.3,0-38.6-17.3-38.6-38.6v-301c0-21.3,17.3-38.6,38.6-38.6h24.1v19.3c0,10.7,8.6,19.3,19.3,19.3s19.3-8.6,19.3-19.3V86.2
				h86.8v19.3c0,10.7,8.6,19.3,19.3,19.3c10.7,0,19.3-8.6,19.3-19.3V86.2h87.8v19.3c0,10.7,8.6,19.3,19.3,19.3s19.3-8.6,19.3-19.3
				V86.2h25.1c21.3,0,38.6,17.3,38.6,38.6v110c0,10.7,8.6,19.3,19.3,19.3s19.3-8.6,19.3-19.3v-110C503,82.2,468.4,47.6,425.8,47.6z"
				/>
			<path class="st0" d="M386.3,269.5c-64.4,0-116.7,52.4-116.7,116.7S321.9,503,386.3,503S503,450.6,503,386.3
				S450.6,269.5,386.3,269.5z M386.3,464.4c-43.1,0-78.2-35.1-78.2-78.2s35.1-78.2,78.2-78.2s78.2,35.1,78.2,78.2
				S429.3,464.4,386.3,464.4z"/>
			<path class="st0" d="M414.2,367h-8.7v-20.3c0-10.7-8.6-19.3-19.3-19.3S367,336,367,346.7v39.6c0,10.7,8.6,19.3,19.3,19.3h28
				c10.7,0,19.3-8.6,19.3-19.3S424.9,367,414.2,367z"/>
			<circle class="st0" cx="297.5" cy="211.6" r="19.3"/>
			<circle class="st0" cx="213.5" cy="295.6" r="19.3"/>
			<circle class="st0" cx="129.6" cy="211.6" r="19.3"/>
			<circle class="st0" cx="129.6" cy="295.6" r="19.3"/>
			<circle class="st0" cx="129.6" cy="379.5" r="19.3"/>
			<circle class="st0" cx="213.5" cy="379.5" r="19.3"/>
			<circle class="st0" cx="213.5" cy="211.6" r="19.3"/>
		</g>
	</g>
</g>
</svg>
