<?xml version="1.0" encoding="utf-8"?>
<!-- Generator: Adobe Illustrator 25.1.0, SVG Export Plug-In . SVG Version: 6.00 Build 0)  -->
<svg version="1.1" id="Capa_1" xmlns="http://www.w3.org/2000/svg" xmlns:xlink="http://www.w3.org/1999/xlink" x="0px" y="0px"
	 viewBox="0 0 512 512" style="enable-background:new 0 0 512 512;" xml:space="preserve">
<style type="text/css">
	.st0{fill:#E7BDC4;}
</style>
<g>
	<g>
		<path class="st0" d="M446.2,427.9l-48.7-62.6c15.8-4.7,29.4-14.8,38.5-28.5c11.5-19.8,6.3-44,1.3-67.4c-3-12-4.8-24.3-5.4-36.6
			c0.6-12.4,2.4-24.7,5.4-36.7c5-23.4,10.2-47.5-1.3-67.3c-11.9-20.5-35.8-28.1-58.9-35.4c-11.5-3.2-22.7-7.5-33.3-13
			c-9.6-6.2-18.6-13.5-26.6-21.6c-17.2-15.9-36.6-33.9-61.4-33.9s-44.2,18-61.4,33.9c-8.1,8.1-17,15.4-26.6,21.6
			c-10.6,5.5-21.7,9.8-33.2,13c-23.1,7.3-47,14.9-58.9,35.4c-11.5,19.8-6.3,44-1.3,67.4c3,12,4.8,24.3,5.4,36.7
			c-0.6,12.4-2.4,24.7-5.4,36.7c-5,23.4-10.2,47.5,1.3,67.3c9.1,13.7,22.8,23.8,38.6,28.5L65.6,428c-2.7,3.5-2.1,8.5,1.4,11.2
			c1.7,1.3,3.8,1.9,5.9,1.6l57.2-7.1l14.1,49.4c0.8,2.9,3.2,5.1,6.2,5.7c0.5,0.1,1,0.1,1.5,0.1c2.5,0,4.8-1.1,6.3-3.1l51.1-65.7
			c12.6,12.2,29.1,19.6,46.6,20.8c17.5-1.2,34-8.6,46.6-20.8l51.1,65.7c1.5,2,3.8,3.1,6.3,3.1c0.5,0,1,0,1.5-0.1
			c3-0.6,5.3-2.8,6.2-5.7l14.1-49.4l57.2,7.1c4.4,0.5,8.4-2.6,8.9-6.9C448.1,431.7,447.5,429.5,446.2,427.9z M155.3,463.4
			l-11.7-40.8c-1.1-3.8-4.8-6.2-8.7-5.7l-44.8,5.6l40.2-51.6l4.4,1.4c11.5,3.2,22.6,7.5,33.2,13c9.6,6.2,18.6,13.5,26.6,21.6
			l2.8,2.5L155.3,463.4z M255.9,424.8c-18.5,0-34-14.4-50.5-29.7c-9-8.9-18.9-16.9-29.5-23.7c-11.6-6.1-23.8-10.9-36.4-14.4
			c-21.1-6.7-41.1-13-49.9-28.2c-8.4-14.5-4-34.6,0.5-56c3.3-13.1,5.2-26.5,5.8-40c-0.5-13.5-2.5-26.9-5.8-40
			c-4.6-21.4-8.9-41.5-0.5-56c8.8-15.2,28.7-21.5,49.9-28.2c12.6-3.5,24.8-8.3,36.4-14.4c10.7-6.8,20.6-14.8,29.5-23.7
			c16.5-15.3,32-29.7,50.5-29.7s34,14.4,50.5,29.7c9,8.9,18.9,16.9,29.5,23.7c11.6,6.1,23.8,10.9,36.4,14.4
			c21.1,6.7,41.1,13,49.9,28.2c8.4,14.5,4,34.6-0.5,56c-3.3,13.1-5.2,26.5-5.8,40c0.5,13.5,2.5,26.9,5.8,40
			c4.6,21.4,8.9,41.5,0.5,56c-8.8,15.2-28.7,21.5-49.9,28.2c-12.6,3.5-24.8,8.3-36.4,14.4c-10.7,6.8-20.5,14.8-29.5,23.7
			C289.9,410.4,274.4,424.8,255.9,424.8z M376.9,416.8c-3.9-0.5-7.6,1.9-8.7,5.7l-11.7,40.8l-42-54l2.8-2.5
			c8.1-8.1,17-15.4,26.6-21.6c10.6-5.5,21.7-9.8,33.2-13l4.4-1.4l40.2,51.6L376.9,416.8z"/>
	</g>
</g>
<g>
	<g>
		<path class="st0" d="M255.9,88.8c-79.5,0-144,64.5-144,144s64.5,144,144,144s144-64.5,144-144C399.8,153.3,335.4,88.9,255.9,88.8z
			 M255.9,360.8c-70.7,0-128-57.3-128-128s57.3-128,128-128s128,57.3,128,128C383.8,303.4,326.6,360.7,255.9,360.8z"/>
	</g>
</g>
<g>
	<g>
		<path class="st0" d="M348.2,199.4c-3-4.1-7.8-6.6-12.9-6.6h-49l-15.2-46.6c-2.8-8.4-11.8-13-20.2-10.2c-4.8,1.6-8.6,5.4-10.2,10.2
			l-15.2,46.6h-49c-8.8,0-16,7.2-16,16c0,5.1,2.4,9.9,6.6,12.9l39.6,28.8l-15.1,46.6c-2.7,8.4,1.9,17.4,10.3,20.2
			c4.9,1.6,10.2,0.7,14.4-2.3l39.7-28.8l39.7,28.8c5.6,4.1,13.2,4.1,18.8,0c5.7-4,8-11.3,5.8-17.9L305,250.5l39.6-28.8
			C351.8,216.5,353.4,206.5,348.2,199.4z M290.9,241c-2.8,2-4,5.7-2.9,9l16.9,52.1l-44.4-32.2c-2.8-2-6.6-2-9.4,0l-44.4,32.2
			l16.9-52.1c1.1-3.3-0.1-6.9-2.9-8.9l-44.4-32.2h54.8c3.5,0,6.5-2.2,7.6-5.5l16.9-52.1l16.9,52.1c1.1,3.3,4.1,5.5,7.6,5.5h54.8
			L290.9,241z"/>
	</g>
</g>
</svg>
