<?xml version="1.0" encoding="utf-8"?>
<!-- Generator: Adobe Illustrator 25.1.0, SVG Export Plug-In . SVG Version: 6.00 Build 0)  -->
<svg version="1.1" id="Capa_1" xmlns="http://www.w3.org/2000/svg" xmlns:xlink="http://www.w3.org/1999/xlink" x="0px" y="0px"
	 viewBox="0 0 512 512" style="enable-background:new 0 0 512 512;" xml:space="preserve">
<style type="text/css">
	.st0{fill:#E7BDC4;}
</style>
<g>
	<path class="st0" d="M190.3,278.1c10.4,1.5,37.1-61.1,39-62.5c1.9-1.4,40.3,1.6,35.2-18.8c-11.5,9.8-16.9-0.8-16.4-8.5
		s10.3-24.1,12.9-23s7,10.2,16.2,1.8c-14,1.3-10.7-19.1-6.3-21.6c4.4-2.4,21.2-9.9,26.1-14.6c4.9-4.7,5.3-19.7,15.2-16.4
		c10,3.3,2.6,24.5,5.6,31.6c3,7.1,29.9,29.9,29.5,37.1s-11.8,5.9-11.5,15.9c0,4.1,7.1,7.1,7.3,11.8c0.2,4.7-7.6,8.3-7.6,8.3
		s6.7,1.8,5.4,9c-1.3,7.1-9.9,5-12.7,6.4c-1.3,0.7,13.2,16.6,2.4,28.6c-9.8,11.5-58.5-0.6-67.9,3c-17.7,6.9-32.3,30.7-22.5,41.9
		c9.7,11.3,43.3,47.6,52,77.8c15,39.6-21.7,108.7-42.2,58.6c-29,19.5,31.7,91.3,116.8-16.7c65.2-87.8,33.3-247.6,14.1-283.5
		C361.7,108.4,272-15.6,175.7,39.3C55.6,105,112.6,263.3,190.3,278.1z"/>
</g>
</svg>
