<?xml version="1.0" encoding="utf-8"?>
<!-- Generator: Adobe Illustrator 25.1.0, SVG Export Plug-In . SVG Version: 6.00 Build 0)  -->
<svg version="1.1" id="Capa_1" xmlns="http://www.w3.org/2000/svg" xmlns:xlink="http://www.w3.org/1999/xlink" x="0px" y="0px"
	 viewBox="0 0 512 512" style="enable-background:new 0 0 512 512;" xml:space="preserve">
<style type="text/css">
	.st0{fill:#E7BDC4;}
</style>
<path class="st0" d="M423.6,447.1V496c0,4.6-3.7,8.3-8.3,8.3c-4.6,0-8.3-3.7-8.3-8.3v-48.9c0-38.1-30.8-68.9-68.9-68.9
	c-18,0-34.4-9.2-43.7-24.6c-2.4-3.9-1.1-9,2.8-11.4s9-1.1,11.4,2.8c6.3,10.4,17.4,16.6,29.6,16.6
	C385.4,361.7,423.6,399.9,423.6,447.1z M285.5,383.1L256,405.9L205.8,367c10.8-8.7,17.8-21.4,19-35.7c9.9,2.9,20.4,4.5,31.2,4.5
	c61,0,110.7-49.7,110.7-110.7c0-0.6,0-58,0-58.6c-0.3-4.5-4-7.8-8.3-7.8c-1.4,0-11.6,2-21.6-4c-15.6-9.4-15.6-29.9-15.6-30.1
	c0-6.7-7.6-10.7-13.1-6.8c-34.1,24.1-74,40.5-117.4,46.6c-4.5,0.6-7.7,4.8-7,9.3c0.6,4.1,4.1,7.1,8.2,7.1c1.3,0,28.1-3.3,58.7-14.4
	c19.7-7.1,38.5-16.5,56.1-27.8c6.1,22.9,23.2,35.6,43.5,36.8V225c0,51.9-42.2,94.2-94.2,94.2S161.8,277,161.8,225v-58
	c0-4.6-3.7-8.3-8.3-8.3s-8.3,3.7-8.3,8.3v58.1c0,44,25.8,82.1,63.1,99.9v2.2c0,19.1-15.5,34.5-34.6,34.5c-10.5,0-20.8,1.9-30.5,5.6
	l-5.3-4.3c-41.9-33.4-49.8-92.3-21.2-135.2c12.2-18.3,19.2-40.2,19.2-63.6v-44.8c0-52.5,42.7-95.2,95.2-95.2h49.7
	c52.5,0,95.2,42.7,95.2,95.2v44.8c0,22.8,6.6,44.7,19.2,63.5c22.9,34.3,22.9,79.3-0.8,113.6c-2.6,3.8-1.6,8.9,2.1,11.5
	c3.8,2.6,8.9,1.6,11.5-2.1c27.6-40,27.6-92.3,0.9-132.2c-10.7-16-16.4-34.8-16.4-54.3v-44.8c0-61.6-50.1-111.7-111.7-111.7h-49.7
	c-61.6,0-111.7,50.1-111.7,111.7v44.8c0,19.4-5.7,38.2-16.5,54.4c-33.3,50.2-23.9,118.3,24.2,157c-23.6,15.5-38.7,41.8-38.7,71.5
	V496c0,4.6,3.7,8.3,8.3,8.3s8.3-3.7,8.3-8.3v-48.9c0-38.1,30.8-68.9,68.9-68.9c5.5,0,10.9-0.9,16.1-2.6l61,47.2
	c3,2.3,7.2,2.3,10.1,0l34.6-26.8c3.6-2.8,4.3-8,1.5-11.6C294.3,380.9,289.1,380.3,285.5,383.1L285.5,383.1z"/>
</svg>
