<?xml version="1.0" encoding="utf-8"?>
<!-- Generator: Adobe Illustrator 25.1.0, SVG Export Plug-In . SVG Version: 6.00 Build 0)  -->
<svg version="1.1" id="Capa_1" xmlns="http://www.w3.org/2000/svg" xmlns:xlink="http://www.w3.org/1999/xlink" x="0px" y="0px"
	 viewBox="0 0 512 512" style="enable-background:new 0 0 512 512;" xml:space="preserve">
<style type="text/css">
	.st0{fill:#E7BDC4;}
</style>
<g>
	<g>
		<path class="st0" d="M442.6,68.4H68.4C35,68.4,7.9,95.5,7.9,128.9v255.7c0,33.4,27.1,60.5,60.5,60.5h374
			c33.4,0,60.5-27.1,60.5-60.5V129C503.1,95.6,476,68.4,442.6,68.4z M475.4,384.6c0,18.1-14.8,32.9-32.9,32.9H68.4
			c-18.1,0-32.9-14.8-32.9-32.9V129c0-18.1,14.8-32.9,32.9-32.9h374c18.1,0,32.9,14.8,32.9,32.9v255.6H475.4z"/>
		<path class="st0" d="M320.1,253.6L441.2,145c5.6-5.1,6.1-13.8,1-19.6c-5.1-5.6-13.8-6.1-19.6-1l-167,149.9L223,245.2
			c-0.1-0.1-0.2-0.2-0.2-0.3c-0.7-0.7-1.4-1.3-2.3-1.9L88.1,124.3c-5.7-5.1-14.4-4.6-19.6,1.1c-5.1,5.7-4.6,14.4,1.1,19.6
			l122.5,109.5l-122,114.2c-5.5,5.2-5.8,13.9-0.6,19.6c2.8,2.9,6.5,4.4,10.1,4.4c3.4,0,6.8-1.2,9.4-3.7l124-115.8l33.6,30
			c2.7,2.4,5.9,3.5,9.2,3.5s6.7-1.2,9.2-3.6l34.5-30.9l123.1,117c2.7,2.6,6.1,3.8,9.5,3.8c3.7,0,7.3-1.4,10-4.3
			c5.2-5.5,5-14.3-0.5-19.6L320.1,253.6z"/>
	</g>
</g>
</svg>
