<?xml version="1.0" encoding="utf-8"?>
<!-- Generator: Adobe Illustrator 25.1.0, SVG Export Plug-In . SVG Version: 6.00 Build 0)  -->
<svg version="1.1" id="Capa_1" xmlns="http://www.w3.org/2000/svg" xmlns:xlink="http://www.w3.org/1999/xlink" x="0px" y="0px"
	 viewBox="0 0 512 512" style="enable-background:new 0 0 512 512;" xml:space="preserve">
<style type="text/css">
	.st0{fill:#E7BDC4;}
</style>
<g>
	<g>
		<path class="st0" d="M473.5,117.2c-18.1-24.9-49.7-47.3-89.1-63.2c-39.2-15.8-84.7-24.5-128.1-24.6s-89,8.5-128.2,24.2
			c-39.5,15.8-71.2,38.1-89.3,62.9c-17.4,23.8-22.4,49.5-14.5,74.3c5.1,16.1,20.1,26.9,37.3,26.9l58.8,0.1c0,0,0,0,0.1,0
			c11.7,0,22.8-5.1,30.2-14.1c7.4-8.9,10.5-20.4,8.4-31.8c-0.1-0.3-0.1-0.7-0.2-1l-3.1-12c17.1-8.2,56-24,100.4-23.7
			c44.3,0.2,83.2,16,100.3,24.2l-3.1,12c-0.1,0.3-0.2,0.7-0.2,1c-2.1,11.3,0.9,22.9,8.3,31.8c7.5,9,18.5,14.2,30.3,14.2l58.8,0.1
			c0,0,0,0,0.1,0c17.2,0,32.1-10.8,37.3-26.8C495.8,166.8,490.8,141.1,473.5,117.2z"/>
	</g>
</g>
<g>
	<g>
		<path class="st0" d="M389,278.5l-43.9-46.1c-2.7-2.8-6.3-4.4-10.2-4.4h-28.4v-19.2c0-7.8-6.3-14.1-14.1-14.1
			c-7.8,0-14.1,6.3-14.1,14.1V228h-45v-19.2c0-7.8-6.3-14.1-14.1-14.1s-14.1,6.3-14.1,14.1V228H177c-3.8,0-7.5,1.6-10.2,4.4
			L123,278.5C88.6,314.6,69.6,362,69.6,411.8v57.8c0,7.8,6.3,14.1,14.1,14.1h344.6c7.8,0,14.1-6.3,14.1-14.1v-57.8
			C442.4,362,423.4,314.6,389,278.5z M256,432.3c-40.6,0-73.6-33-73.6-73.6s33-73.6,73.6-73.6s73.6,33,73.6,73.6
			S296.6,432.3,256,432.3z"/>
	</g>
</g>
<g>
	<g>
		<path class="st0" d="M256,313.3c-25.1,0-45.5,20.4-45.5,45.5s20.4,45.5,45.5,45.5s45.5-20.4,45.5-45.5
			C301.5,333.7,281.1,313.3,256,313.3z"/>
	</g>
</g>
</svg>
