<?xml version="1.0" encoding="utf-8"?>
<!-- Generator: Adobe Illustrator 25.1.0, SVG Export Plug-In . SVG Version: 6.00 Build 0)  -->
<svg version="1.1" id="Capa_1" xmlns="http://www.w3.org/2000/svg" xmlns:xlink="http://www.w3.org/1999/xlink" x="0px" y="0px"
	 viewBox="0 0 512 512" style="enable-background:new 0 0 512 512;" xml:space="preserve">
<style type="text/css">
	.st0{fill:#E7BDC4;}
</style>
<g>
	<g>
		<g>
			<path class="st0" d="M255.5,9.3c-85.3,0-154.7,69.4-154.7,154.7c0,82.3,140.5,266.7,146.6,274.4c1.9,2.6,4.9,4,8.1,4
				c3.2,0,6.2-1.4,8.1-4c5.9-7.8,146.6-192.1,146.6-274.4C410.2,78.7,340.8,9.3,255.5,9.3z M255.5,236.1
				c-39.8,0-72.3-32.4-72.3-72.3s32.4-72.3,72.3-72.3s72.3,32.4,72.3,72.3S295.3,236.1,255.5,236.1z"/>
		</g>
	</g>
	<g>
		<g>
			<path class="st0" d="M491,488.3l-82.5-123.7c-1.9-2.8-5.2-4.7-8.5-4.7h-56c-29.9,46-57.5,82.6-64,91c-5.8,7.6-15,12.1-24.6,12.1
				s-18.7-4.5-24.6-12.1c-6.5-8.4-34.1-45-64-91H111c-3.5,0-6.7,1.7-8.5,4.7L20.1,488.3c-2.1,3.1-2.3,7.2-0.5,10.6s5.3,5.4,9,5.4
				h453.7c3.9,0,7.2-2.1,9-5.4C493.3,495.5,493.1,491.4,491,488.3z"/>
		</g>
	</g>
</g>
</svg>
