<?xml version="1.0" encoding="utf-8"?>
<!-- Generator: Adobe Illustrator 25.1.0, SVG Export Plug-In . SVG Version: 6.00 Build 0)  -->
<svg version="1.1" id="Capa_1" xmlns="http://www.w3.org/2000/svg" xmlns:xlink="http://www.w3.org/1999/xlink" x="0px" y="0px"
	 viewBox="0 0 512 512" style="enable-background:new 0 0 512 512;" xml:space="preserve">
<style type="text/css">
	.st0{fill:#E7BDC4;}
</style>
<g>
	<path class="st0" d="M483,250.9c0,122.4-100,221.6-223.4,221.6c-39.2,0-75.9-10-108-27.6L28,484.3l40.3-118.9
		C48,332,36.3,292.8,36.3,251c0-122.4,100-221.6,223.4-221.6C383,29.3,483,128.5,483,250.9z M259.6,64.6
		C156.1,64.6,71.8,148.2,71.8,251c0,40.8,13.3,78.5,35.8,109.2l-23.4,69.2l72.1-22.9c29.7,19.5,65.2,30.8,103.3,30.8
		c103.5,0,187.8-83.6,187.8-186.3C447.4,148.2,363.2,64.6,259.6,64.6z M372.4,302c-1.4-2.2-5-3.6-10.5-6.3
		c-5.4-2.7-32.4-15.9-37.4-17.6c-5-1.8-8.7-2.7-12.3,2.7c-3.6,5.4-14.1,17.7-17.3,21.3c-3.2,3.6-6.4,4.1-11.9,1.4
		c-5.5-2.8-23.1-8.5-44.1-27c-16.3-14.4-27.3-32.2-30.4-37.6c-3.2-5.4-0.3-8.4,2.4-11.1c2.4-2.4,5.5-6.4,8.2-9.5
		c2.7-3.2,3.6-5.4,5.5-9c1.8-3.6,0.9-6.8-0.5-9.5s-12.3-29.4-16.9-40.3c-4.6-10.9-9.1-9.1-12.3-9.1s-6.8-0.4-10.5-0.4
		s-9.6,1.3-14.6,6.8s-19.2,18.6-19.2,45.3c0,26.8,19.6,52.6,22.3,56.2c2.8,3.6,37.9,60.3,93.5,82c55.7,21.7,55.7,14.5,65.7,13.6
		c10.1-0.9,32.4-13.1,36.9-25.8C373.8,315.2,373.8,304.2,372.4,302z"/>
</g>
</svg>
