<?xml version="1.0" encoding="utf-8"?>
<!-- Generator: Adobe Illustrator 25.1.0, SVG Export Plug-In . SVG Version: 6.00 Build 0)  -->
<svg version="1.1" id="Capa_1" xmlns="http://www.w3.org/2000/svg" xmlns:xlink="http://www.w3.org/1999/xlink" x="0px" y="0px"
	 viewBox="0 0 512 512" style="enable-background:new 0 0 512 512;" xml:space="preserve">
<style type="text/css">
	.st0{fill:#CF639D;}
</style>
<g>
	<path class="st0" d="M256,273.9c-15.4,0-28,12.6-28,28s12.6,28,28,28s28-12.6,28-28S271.4,273.9,256,273.9z M256,315.9
		c-7.7,0-14-6.3-14-14s6.3-14,14-14c7.7,0,14,6.3,14,14S263.7,315.9,256,315.9z"/>
	<path class="st0" d="M256,245.9c-5.5,0-11,0.8-16.2,2.4l-4.5,1.4l-0.5,4.6c-0.7,7.2-6.7,12.6-13.8,12.6c-1,0-2-0.1-3.2-0.4
		l-4.5-1.1l-2.7,3.8c-6.9,9.6-10.6,20.9-10.6,32.7c0,30.9,25.1,56,56,56s56-25.1,56-56S286.9,245.9,256,245.9z M256,343.9
		c-23.2,0-42-18.8-42-42c0-7.4,2-14.6,5.7-21c13.3,0.7,24.6-8,28.1-20.2c2.7-0.5,5.4-0.8,8.2-0.8c23.2,0,42,18.8,42,42
		S279.2,343.9,256,343.9z"/>
	<path class="st0" d="M459,238.9c0,11.8-3.1,23-8.5,31.8c-4.6-4-9.4-7.9-14.2-11.5c5.7-9.7,8.8-21.6,8.8-34.3h-14
		c0,9.5-2.3,18.7-6.3,26.1c-4.6-3.1-9.4-6.1-14.2-9c4.2-9.4,6.5-20,6.5-31.1h-14c0,8.7-1.6,16.9-4.7,24.3
		c-5.3-2.8-10.7-5.3-16.1-7.7c4.4-9,6.8-19.6,6.8-30.6h-14c0,9.2-2.1,17.9-5.8,25.2c-5.2-2-10.4-3.8-15.8-5.5
		c4.9-10,7.6-21.7,7.6-33.7h-14c0,10.9-2.7,21.2-7.4,29.7c-4.6-1.2-9.3-2.3-14-3.2c4.8-10,7.4-21.5,7.4-33.5h-14
		c0,11.4-3,22.2-8.2,31c-13.3-2-26.9-3-40.6-3h-28.4c-74,0-143.5,28.8-195.8,81.1c-4.5,4.5-7,10.5-7,16.9s2.5,12.4,7,16.9
		c52.3,52.3,121.8,81.1,195.8,81.1H256c5.4,0,11.2,5.2,15.3,14c-0.4,0-0.7,0-1.1,0h-28.4C188,413.9,136.2,397.7,92,367l-8,11.5
		c46.6,32.3,101.1,49.4,157.8,49.4h28.4c1.8,0,3.7-0.1,5.5-0.1c0.8,4.3,1.3,9.1,1.3,14.1h14c0-5.1-0.4-10-1.2-14.7
		c6.7-0.5,13.3-1.2,19.8-2.1c1.5,5.2,2.4,10.9,2.4,16.8h14c0-6.7-0.9-13.1-2.5-19.1c4.9-0.9,9.7-2.1,14.5-3.3
		c1.3,4.8,2.1,10,2.1,15.4h14c0-6.7-0.9-13.1-2.6-19.2c5.3-1.6,10.5-3.4,15.7-5.4c0.5,3.3,0.8,6.7,0.8,10.5h14
		c0-5.6-0.5-10.9-1.4-15.9c4.8-2.1,9.6-4.3,14.3-6.7c0.7,2.7,1.1,5.6,1.1,8.7h14c0-5.5-0.9-10.7-2.5-15.5
		c7.4-4.3,14.7-8.8,21.8-13.8l-8-11.5c-6.6,4.6-13.4,8.8-20.3,12.8c-2.3-3-4.9-5.6-7.8-7.8c26.6-13.2,51.2-30.7,72.8-52.4
		c4.5-4.5,7-10.5,7-16.9s-2.5-12.4-7-16.9c-1.6-1.6-3.3-3.2-5-4.8c7.7-11.4,12-26.1,12-41.3L459,238.9z M55.9,308.9
		c-1.9-1.9-2.9-4.4-2.9-7s1-5.1,2.9-7c39.8-39.8,90.1-65.2,144.7-73.8c-25.7,17.7-42.6,47.3-42.6,80.8s16.9,63.1,42.6,80.8
		C146,374.1,95.7,348.7,55.9,308.9L55.9,308.9z M172,301.9c0-46.3,37.7-84,84-84s84,37.7,84,84s-37.7,84-84,84S172,348.2,172,301.9z
		 M286.2,413.3c-1.9-5.1-4.2-9.7-7-13.6c1.7-0.1,3.3,0,5-0.1c7.4,0.1,14.2,4.7,19.2,12.1C297.7,412.4,291.9,412.9,286.2,413.3z
		 M318.2,409.3c-2.5-4.6-5.4-8.8-8.8-12.2c3.8-0.5,7.6-1.2,11.4-1.9c4.5,2.3,8.4,6.2,11.5,11.2C327.7,407.5,323,408.5,318.2,409.3z
		 M346.3,402.6c-2.2-4.2-4.9-7.9-7.9-11.1c5.8-1.5,11.6-3.2,17.3-5c2.6,1.1,5.5,4.7,7.9,10.2C357.9,398.8,352.2,400.8,346.3,402.6
		L346.3,402.6z M388.6,385.7c-3.9,2-8,3.8-12,5.6c-1.6-3.9-3.6-7.3-5.9-10.2c1.8-0.7,3.6-1.3,5.4-2.1
		C380.8,379.3,385.1,381.8,388.6,385.7L388.6,385.7z M456.1,308.9c-39.8,39.8-90.1,65.2-144.7,73.8c25.7-17.7,42.6-47.3,42.6-80.8
		s-16.9-63.1-42.6-80.8c54.6,8.5,104.9,34,144.7,73.8c1.9,1.9,2.9,4.4,2.9,7S458,307,456.1,308.9z"/>
	<path class="st0" d="M471.8,158c-2.4-3.5-59-87.1-138.8-87.1c-67,0-230.4,35.9-278.9,47c-8.9,2-15.1,9.8-15.1,19v26.6
		c0,10.7,8.7,19.5,19.5,19.5c1.6,0,3.1-0.2,4.6-0.6c8-2,196.1-48.4,262.9-48.4c67,0,128.5,40.4,129.1,40.8l1.8,1.2H473v-16.1
		L471.8,158z M326,119.9c-67.3,0-246.1,43.9-266.2,48.9c-3.2,0.8-6.8-1.8-6.8-5.3v-26.6c0-2.6,1.7-4.8,4.2-5.3
		C91.5,123.8,265.7,85,333,85c58.5,0,105.2,52.4,121.2,72.9C434.3,146.2,382.8,119.9,326,119.9z"/>
</g>
</svg>
