<?xml version="1.0" encoding="utf-8"?>
<!-- Generator: Adobe Illustrator 25.1.0, SVG Export Plug-In . SVG Version: 6.00 Build 0)  -->
<svg version="1.1" id="Capa_1" xmlns="http://www.w3.org/2000/svg" xmlns:xlink="http://www.w3.org/1999/xlink" x="0px" y="0px"
	 viewBox="0 0 512 512" style="enable-background:new 0 0 512 512;" xml:space="preserve">
<style type="text/css">
	.st0{fill:#CF639D;}
</style>
<g>
	<g>
		<path class="st0" d="M93.6,296.2c-0.2,0-0.5,0-0.7,0c-4.1-0.4-7-4-6.7-8c3.5-38.3,56.5-57.3,66.8-59.6
			c48.3-17.6,66.5-31.1,52.8-92.2c-0.9-4,1.6-7.9,5.6-8.8c4-0.9,7.9,1.6,8.8,5.6c7.8,34.5,6,57.5-5.7,74.4
			c-11,15.9-29.9,25.2-56.9,35.1c-0.4,0.1-0.8,0.3-1.2,0.3c-9.2,1.7-52.9,19.1-55.4,46.6C100.6,293.4,97.4,296.2,93.6,296.2
			L93.6,296.2z"/>
	</g>
	<g>
		<path class="st0" d="M216.7,441.4c-10.3,0-20.7-1.9-28.7-5.6c-3.7-1.7-5.3-6.1-3.6-9.8c1.7-3.7,6.1-5.3,9.8-3.6
			c12.2,5.7,32.8,5.7,45,0c3.7-1.7,8.1-0.1,9.8,3.6s0.1,8.1-3.6,9.8C237.4,439.6,227,441.4,216.7,441.4L216.7,441.4z"/>
	</g>
	<g>
		<path class="st0" d="M155.6,331.2c-8.3,0-16.7-0.9-23.2-2.7c-3.9-1.1-6.2-5.1-5.2-9.1s5.1-6.2,9.1-5.2c10.5,2.9,28.2,2.9,38.6,0
			c3.9-1.1,8,1.2,9.1,5.2c1.1,3.9-1.2,8-5.2,9.1C172.3,330.4,163.9,331.2,155.6,331.2z"/>
	</g>
	<g>
		<path class="st0" d="M278.8,333.2c-8.4,0-16.7-0.9-23.2-2.7c-3.9-1.1-6.2-5.1-5.2-9.1c1.1-3.9,5.1-6.2,9.1-5.2
			c10.5,2.9,28.2,2.9,38.7,0c3.9-1.1,8,1.2,9.1,5.2c1.1,3.9-1.2,8-5.2,9.1C295.5,332.3,287.1,333.2,278.8,333.2L278.8,333.2z"/>
	</g>
	<path class="st0" d="M488.4,5.1c-3.6-1.9-8.1-0.6-10,3L417.3,122l-33.2-17.8c-4.8-2.5-10.1-2.8-14.9-1.2
		c-38.2-42.2-92-66.3-148.7-66.3c-52.6,0-102.4,20.4-140.3,57.4c-2.9,2.8-3,7.5-0.1,10.4c2.8,2.9,7.5,3,10.4,0.1
		c35.1-34.3,81.3-53.2,130-53.2c52.5,0,102.4,22.3,137.8,61.4l-7.9,14.7c-3.4,6.4-2.7,13.8,1.1,19.4l-35.3,43.5
		c-1.4,1.7-5.5,6.8-4.3,13.1c0.5,2.6,2.2,6.3,7.3,9l87.2,46.8v41.8c0,42.8-2.2,76.7-12.7,103.3c-11.3,28.5-31.7,46.4-64.4,56.6
		c-7.9,2.4-11.4,1.8-12.2,1c-1-1-2.2-4.6,1.1-17.5c9.8-11.7,17.9-23.9,23.5-35.5c1.8-3.7,0.2-8.1-3.5-9.8c-3.7-1.8-8.1-0.2-9.8,3.5
		c-5.4,11.2-13,22.5-21.9,33c-0.4,0.4-0.8,0.9-1.2,1.4c-26.7,31.1-64.4,55.9-89.7,55.9c-0.7,0-1.4,0-2.1-0.1c-0.3,0-0.6,0-0.8,0
		c-18.3,1-46.3-12.6-71-33.6c-2.8-1.9-13.4-11.1-17.5-16.8c-10.3-17.2-9.9-34.3-8.1-59.7c3.9-55.3,46.7-78.3,88.1-100.6
		c22.2-12,43.6-23.4,59.2-39.4c19.7,33.7,54.2,48.3,83.9,48.4v7.1c0,19.6,0,25.5-0.2,29c0,0.1,0,0.3,0,0.4c0,12.4-2.1,26.5-6,40.9
		c-1.1,3.9,1.2,8,5.2,9.1c0.7,0.2,1.3,0.3,1.9,0.3c3.2,0,6.2-2.2,7.1-5.4c4.2-15.6,6.5-31,6.5-44.6c0.2-4,0.2-9.6,0.2-29.7v-14.7
		c0-2.1-0.9-4-2.4-5.4s-3.6-2.1-5.6-1.9c-27.8,2.4-62.9-10.8-80.5-45.6c2-3,3.9-6.1,5.6-9.4c0.1-0.2,0.1-0.3,0.2-0.5
		c0,0,0-0.1,0.1-0.1v-0.1v-0.1c10.9-27.2,5.8-63.7-13.7-97.7c-2-3.5-6.5-4.8-10.1-2.7c-3.5,2-4.8,6.5-2.7,10.1
		c17.2,30,22,61.6,12.9,84.7c-12.3,24.1-39.6,38.8-68.5,54.3c-42.8,23-91.4,49.1-95.9,112.6c-2,27.7-2.3,47.7,10.4,68.6
		c0.1,0.2,6.7,8.5,10,11.2c-8.5-3-20-8.7-32.2-18.3c-20.5-16.1-55-53.5-55-123v-83.6c0-38.3,11.8-75.1,34-106.5
		c2.4-3.3,1.6-7.9-1.7-10.3c-3.3-2.4-7.9-1.6-10.3,1.7c-24,33.9-36.8,73.7-36.8,115v83.6c0,44.6,13.5,84,39,113.9
		c21.2,24.8,46.9,38.5,63.8,43.1c4.4,1.2,8.3,1.8,11.5,1.8c2.8,0,5.2-0.4,7.1-1.3c22.1,16.9,47.7,29.9,69.4,29.9
		c0.9,0,1.7,0,2.5-0.1c19.6,0.9,45.6-10.1,71.4-30.5c5.9-4.7,11.7-9.7,17.2-15c0.7,3.9,2.2,7.6,5.2,10.5c3.4,3.2,7.8,4.8,13.4,4.8
		c3.9,0,8.4-0.8,13.4-2.4c80.9-25.1,87.5-93.7,87.5-174v-39.5c5.6-2.6,7.4-8.6,8.1-10.6l16.7-53.5c0.1,0,0.2,0,0.3,0
		c1.8,0,3.6-0.3,5.4-0.8c4.8-1.4,8.7-4.7,11.1-9.1l8.5-15.8c4.8-9.1,1.4-20.4-7.6-25.3l0,0l-33.2-17.8l61.1-113.9
		C493.3,11.5,492,7,488.4,5.1L488.4,5.1z M415.1,246.7c-0.1,0.2-0.1,0.4-0.2,0.5l-18.1-9.7l6.7-23.3c1.1-3.9-1.1-8-5-9.1
		s-8,1.1-9.1,5l-5.9,20.3l-23.7-12.7l13.7-16.1c2.6-3.1,2.3-7.8-0.8-10.4c-3.1-2.6-7.8-2.3-10.4,0.8l-15.7,18.5l-19.2-10.3
		c0.1-0.1,0.2-0.3,0.3-0.4l35.8-44.1l68.6,36.8L415.1,246.7z M458.2,165.1l-8.4,15.7c-0.7,1.2-1.7,1.7-2.3,1.9
		c-0.6,0.2-1.7,0.4-3-0.3l0,0L369,142l-4-2.2c-1.9-1-2.6-3.4-1.6-5.3l8.4-15.7c0.7-1.3,2.1-2.1,3.5-2.1c0.6,0,1.2,0.1,1.8,0.4
		l79.4,42.6C458.5,160.8,459.2,163.2,458.2,165.1L458.2,165.1z"/>
</g>
</svg>
