<?xml version="1.0" encoding="utf-8"?>
<!-- Generator: Adobe Illustrator 25.1.0, SVG Export Plug-In . SVG Version: 6.00 Build 0)  -->
<svg version="1.1" id="Capa_1" xmlns="http://www.w3.org/2000/svg" xmlns:xlink="http://www.w3.org/1999/xlink" x="0px" y="0px"
	 viewBox="0 0 512 512" style="enable-background:new 0 0 512 512;" xml:space="preserve">
<style type="text/css">
	.st0{fill:#CF639D;}
</style>
<g>
	<g>
		<path class="st0" d="M494.3,17.4L494.3,17.4c-4.1-4.1-9.7-6.4-15.4-6.4l0,0c-4.9,0-9.8,1.7-13.6,4.8
			C413,57.5,360.6,100.5,309.5,143.7c-12.4,10.5-24.9,21.1-37.3,31.7l-142-142c-14-14-36.8-14-50.9,0l-67.4,67.4
			c-2.8,2.8-2.8,7.4,0,10.2c2.8,2.8,7.4,2.8,10.2,0l47-47l10.3,10.3l-47.1,47.1c-2.8,2.8-2.8,7.4,0,10.2c1.4,1.4,3.2,2.1,5.1,2.1
			c1.8,0,3.7-0.7,5.1-2.1l47.1-47.1l10.3,10.3l-47.1,47.1c-2.8,2.8-2.8,7.4,0,10.2c1.4,1.4,3.2,2.1,5.1,2.1s3.7-0.7,5.1-2.1
			l47.1-47.1l10.3,10.3l-47.1,47.1c-2.8,2.8-2.8,7.4,0,10.2c1.4,1.4,3.2,2.1,5.1,2.1c1.8,0,3.7-0.7,5.1-2.1l47.1-47.1l10.3,10.3
			l-47.1,47.1c-2.8,2.8-2.8,7.4,0,10.2c1.4,1.4,3.2,2.1,5.1,2.1c1.8,0,3.7-0.7,5.1-2.1l47.1-47.1l10.3,10.3l-47.1,47.1
			c-2.8,2.8-2.8,7.4,0,10.2c1.4,1.4,3.2,2.1,5.1,2.1c1.8,0,3.7-0.7,5.1-2.1l47.1-47.1l10.3,10.3l-47.1,47.1c-2.8,2.8-2.8,7.4,0,10.2
			c1.4,1.4,3.2,2.1,5.1,2.1c1.8,0,3.7-0.7,5.1-2.1l47.1-47.1l10.3,10.3l-47.1,47.1c-2.8,2.8-2.8,7.4,0,10.2c1.4,1.4,3.2,2.1,5.1,2.1
			s3.7-0.7,5.1-2.1l47.1-47.1l10.7,10.7c-22.1,19.2-44.1,38.6-65.8,57.9l0,0c-6.5,5.7-13.5,12.4-20.4,18.6
			c-4.3,3.1-3.4,8.5-1.3,10.6l0,0c6.9,8.4,10.8,19.1,10.8,30.1c0,12.9-5,25-14,34.1c-0.1,0.1-21.6,21.6-21.7,21.7
			c-31.3,32-86.4,10.2-86.4-35.2c0-27.5,22.2-50.2,50.3-50.3c15.3,0,29.6,6.8,39.2,18.7c2.6,3.2,7.4,3.6,10.4,0.8l0.1-0.1l0.1-0.1
			c3.4-3,3.1-8.5-0.6-11.2c-12.3-14.3-30.2-22.5-49.1-22.5h-0.1c-36,0-64.7,29.3-64.7,64.7c0,26.7,16.3,50.2,40.4,60
			c14.3,5.8,30,6.2,44.1,1.7c-13.5,42,17.9,84.6,61.6,84.6h0.1c35.7,0,64.7-28.9,64.7-64.7c0-17-6.5-33.1-18.4-45.2l14.7-16.7
			c25.9-28.8,51.5-57.8,76.9-86.8l10.8,10.8l-47.1,47.1c-2.8,2.8-2.8,7.4,0,10.2c1.4,1.4,3.2,2.1,5.1,2.1c1.8,0,3.7-0.7,5.1-2.1
			l47.1-47.1l10.3,10.3l-47.1,47.1c-2.8,2.8-2.8,7.4,0,10.2c1.4,1.4,3.2,2.1,5.1,2.1c1.8,0,3.7-0.7,5.1-2.1l47.1-47.1l10.3,10.3
			l-47.1,47.1c-2.8,2.8-2.8,7.4,0,10.2c1.4,1.4,3.2,2.1,5.1,2.1c1.8,0,3.7-0.7,5.1-2.1l47.1-47.1l10.3,10.3l-47.1,47.1
			c-2.8,2.8-2.8,7.4,0,10.2c1.4,1.4,3.2,2.1,5.1,2.1s3.7-0.7,5.1-2.1l47.1-47.1l10.3,10.3l-47.1,47.1c-2.8,2.8-2.8,7.4,0,10.2
			c1.4,1.4,3.2,2.1,5.1,2.1c1.8,0,3.7-0.7,5.1-2.1l47.1-47.1l10.3,10.3l-47.1,47.1c-2.8,2.8-2.8,7.4,0,10.2c1.4,1.4,3.2,2.1,5.1,2.1
			c1.8,0,3.7-0.7,5.1-2.1l47.1-47.1l10.3,10.3l-47.1,47.1c-2.8,2.8-2.8,7.4,0,10.2c1.4,1.4,3.2,2.1,5.1,2.1c1.8,0,3.7-0.7,5.1-2.1
			l47.1-47.1l10.3,10.3l-47.1,47.1c-2.8,2.8-2.8,7.4,0,10.2c1.4,1.4,3.2,2.1,5.1,2.1s3.7-0.7,5.1-2.1l52.2-52.2l0,0l0,0l15.2-15.2
			c6.8-6.8,10.5-15.8,10.5-25.4s-3.7-18.6-10.5-25.4L336.1,239.4c55.1-64.3,108.6-128.9,159.8-193C502.9,37.8,502.2,25.3,494.3,17.4
			z M79.3,53.8l10.2-10.2c8.4-8.4,22.1-8.4,30.5,0l141.2,141.2c-9.1,7.8-18.2,15.7-27.3,23.6L79.3,53.8z M468.1,391.8
			c4.1,4.1,6.3,9.5,6.3,15.3s-2.2,11.2-6.3,15.3l-10.2,10.2c-4.8-4.8-144.6-144.6-154.8-154.8c7.9-9.1,15.8-18.2,23.6-27.3
			L468.1,391.8z M210.1,361.3c-3.5-2.7-12.8-7.3-14.3-20.4c-0.4-3.6-3.5-6.3-7.1-6.3c-4.3,0-7.7,3.8-7.2,8l0,0
			c1.4,11.7,7.7,22.1,17.5,28.4c0.5,0.3,1,0.7,1.5,1.1c-5,5.7-9.1,10.5-13.8,15.7c-1.3,1.5-2,3.4-1.8,5.4c0.1,2,1.1,3.8,2.6,5
			c12.1,9.9,18.7,24,18.7,39.1c0,27.7-22.4,50.3-50.3,50.3c-27.7,0-50.3-22.3-50.3-50.3c0-22.8,14.4-35,15.5-36.5l21.3-21.3
			c11.8-11.8,18.2-27.7,18.2-44.2c0-12.1-3.5-23.8-10-33.8c5.6-5.1,10.5-9.7,16.2-14.8l0,0C322.8,147.5,472.4,28,475.2,26.4
			c-1.9,1.9-282.6,282.4-283.8,283.9c-2.6,3-2.4,7.5,0.6,10.2s7.5,2.3,10.2-0.6c0.9-1,281.2-281.2,283.3-283.3
			C484.8,37.6,369,184.3,210.1,361.3z"/>
	</g>
</g>
<g>
	<g>
		<path class="st0" d="M99.9,330.4c-22.7-22.7-61.4-6.3-61.4,25.4c0,9.6,3.7,18.6,10.5,25.4c7,7,16.2,10.5,25.4,10.5
			s18.4-3.5,25.4-10.5C113.9,367.2,113.9,344.4,99.9,330.4z M89.7,371.1c-8.4,8.4-22.1,8.4-30.5,0c-13.5-13.5-4-36.8,15.3-36.8
			C93.8,334.3,103.1,357.7,89.7,371.1z"/>
	</g>
</g>
<g>
	<g>
		<path class="st0" d="M155.8,401.4c-14.8,0-27.5,8.5-33.2,22.2s-2.7,28.8,7.7,39.2c6.9,6.9,15.9,10.6,25.1,10.6
			c4.7,0,9.4-0.9,14-2.8c13.7-5.7,22.3-18.4,22.3-33.2C191.8,417.5,175.7,401.4,155.8,401.4z M164,457.2c-6.4,2.7-16,2.8-23.5-4.6
			c-7.5-7.5-7.3-17.1-4.6-23.5s9.3-13.3,19.9-13.3c11.9,0,21.6,9.7,21.6,21.6C177.4,447.9,170.5,454.5,164,457.2z"/>
	</g>
</g>
</svg>
