<?xml version="1.0" encoding="utf-8"?>
<!-- Generator: Adobe Illustrator 25.1.0, SVG Export Plug-In . SVG Version: 6.00 Build 0)  -->
<svg version="1.1" id="Capa_1" xmlns="http://www.w3.org/2000/svg" xmlns:xlink="http://www.w3.org/1999/xlink" x="0px" y="0px"
	 viewBox="0 0 512 512" style="enable-background:new 0 0 512 512;" xml:space="preserve">
<style type="text/css">
	.st0{fill:#CF639D;}
</style>
<g>
	<path class="st0" d="M474.2,198.9c-58-116-184.7-118.8-243.6-104.1L46.2,140.7c-7.4,1.8-11.5,9.6-9,16.7l18.4,52.7
		c6.7,20.1,28.5,31.1,48.8,24.3c0.1,0,0.2-0.1,0.4-0.1l137.9-50.5c70.8-26,152.2-14,212.5,31.1c4.8,3.6,11.4,3.4,16-0.4
		C475.6,210.7,476.9,204.3,474.2,198.9z"/>
	<path class="st0" d="M428.4,271.6c-20.3,12.1-54.6,50.1-112.9,66.7c-0.1,0-0.3,0-0.4,0.1c-0.5,0.1-0.9,0.3-1.3,0.4
		c-16.6,4.6-35.2,7.4-55.9,7.4c-71.1,0-110.5-33-150.5-50.1c-6.4-3.2-14.1-0.6-17.3,5.8c-3.2,6.4-0.6,14.1,5.8,17.3
		c6.3,2.6,12.7,5.8,19.3,9.3l-20.9,31.3c-3.9,5.9-2.3,13.9,3.6,17.8s13.9,2.4,17.8-3.6l22.4-33.6c12.2,6.3,25.5,12.6,40.5,17.9
		l-9.6,38.4c-1.7,6.9,2.5,13.9,9.4,15.6s13.9-2.4,15.6-9.4l9.3-37.3c12.2,2.9,25.4,5,39.9,5.9v39c0,7.1,5.8,12.9,12.9,12.9
		c7.1,0,12.9-5.8,12.9-12.9v-38.9c13.5-0.6,26.9-2.4,40-5.3l9.4,37.5c1.7,6.9,8.8,11.1,15.6,9.4c6.9-1.7,11.1-8.7,9.4-15.6
		l-9.5-38.1c14.1-4.7,27.9-10.8,40.9-18.1l21.8,32.7c4,5.9,12,7.5,17.8,3.6c5.9-3.9,7.5-11.9,3.6-17.8l-21.4-32.2
		c5-3.6,3.6-2.6,47.5-35.5c5.7-4.3,6.8-12.3,2.6-18C442.2,268.5,434.1,267.3,428.4,271.6L428.4,271.6z"/>
</g>
</svg>
