<?xml version="1.0" encoding="utf-8"?>
<!-- Generator: Adobe Illustrator 25.1.0, SVG Export Plug-In . SVG Version: 6.00 Build 0)  -->
<svg version="1.1" id="Capa_1" xmlns="http://www.w3.org/2000/svg" xmlns:xlink="http://www.w3.org/1999/xlink" x="0px" y="0px"
	 viewBox="0 0 512 512" style="enable-background:new 0 0 512 512;" xml:space="preserve">
<style type="text/css">
	.st0{fill:#CF639D;}
</style>
<g>
	<path class="st0" d="M211.3,37.7c6.8-1.1,74.5-1.1,81.3,0c43.8,8,73.2,40.5,87.2,96.5c10.4,41.5,13.6,83.4,16.3,126.3l16-1
		c-2.6-41.9-6.1-86.4-16.8-129.2C379.9,68.5,345.4,31,295.5,22c-7.7-1.4-79.3-1.4-87,0c-24,4.4-44.5,15.3-61,32.5L159,65.6
		C173.2,50.8,190.8,41.5,211.3,37.7L211.3,37.7z"/>
	<path class="st0" d="M468,420c-13.2,0-24,10.8-24,24v8h16v-8c0-4.4,3.6-8,8-8s8,3.6,8,8v4.5c0,5.7-1.9,11.3-5.3,15.8
		c-0.4,0.5-0.8,1-1.3,1.4c-5.9,5.4-17.1,13.7-25.6,8.5c-8.3-5-11.3-27-13.1-40.1c-0.5-3.4-0.9-6.4-1.3-9l-15.8,2.7
		c0.4,2.4,0.8,5.3,1.2,8.5c1.6,12,3.7,26.8,9.2,38l-51.8-3c-27.1-1.6-48.4-24.1-48.4-51.3v-80.2c22.3-26.5,32.7-65,41.8-98.8
		c3.3-12.3,6.4-24,9.9-34.5c0.8-2.4,0.4-5.1-1.1-7.2c-6.5-9-64.1-86.6-104-86.6c-0.4,0-0.9,0-1.3,0c-7,0.3-16.9,3.2-24.1,15.2
		c-22.2,37-114.8,69-115.7,69.4c-4,1.4-6.3,5.7-5.1,9.8c2.1,7.2,4.1,14.9,6.2,22.8c9.8,37.1,21.8,82.8,49.5,112.2v78
		c0,27.2-21.2,49.7-48.4,51.3l-51.8,3c5.5-11.3,7.6-26.1,9.2-38c0.4-3.2,0.8-6,1.2-8.5c5.6-32.5,9.9-65.5,12.8-98.1
		c1.6-18.3,2.7-36.9,3.8-54.9c2-33.5,4.1-68.2,9.4-101.6l-15.8-2.5C95.1,205,93,240,91,273.9c-1.1,17.9-2.2,36.4-3.8,54.5
		c-2.8,32.1-7,64.7-12.6,96.8c-0.4,2.6-0.9,5.7-1.3,9c-1.8,13.1-4.8,35.1-13.1,40.1c-4.8,2.9-11.1,1.9-18.6-3
		c-4.2-2.8-7.6-7-9.9-12.3l-1.2-2.8c-1.7-3.9-2.5-8-2.5-12.2c0-4.4,3.6-8,8-8s8,3.6,8,8v8h16v-8c0-13.2-10.8-24-24-24
		s-24,10.8-24,24c0,6.4,1.3,12.6,3.8,18.5l1.2,2.8c3.5,8.2,9,14.8,15.8,19.3c7.5,4.9,14,6.8,19.6,7.2v0.2l1.4-0.1c0.1,0,0.3,0,0.4,0
		c1.2,0,2.4-0.1,3.5-0.3l74.8-4.4c35.6-2.1,63.4-31.6,63.4-67.3v-64.2c14.8,10.1,33.1,16.3,56,16.3c23.5,0,41.6-6.6,56-17.2V420
		c0,35.6,27.9,65.2,63.4,67.3l74.3,4.4c1.3,0.2,2.7,0.3,4,0.3c0.2,0,0.4,0,0.6,0l1.2,0.1V492c9.1-0.6,18.9-5.4,28.7-14.3
		c1.2-1.1,2.2-2.2,3.2-3.5c5.6-7.3,8.6-16.4,8.6-25.6V444C492,430.8,481.2,420,468,420L468,420z M252,356.1
		c-71.7,0-89.9-69.2-106-130.3c-1.4-5.4-2.8-10.8-4.2-15.9c23.2-8.6,95.6-37.8,117.2-73.7c3.8-6.3,7.9-7.3,11-7.4
		c23.1-0.9,65.7,45.2,89.3,76.8c-3.1,9.8-5.9,20.4-8.9,31.4C334.7,295.5,318.5,356.1,252,356.1L252,356.1z"/>
	<path class="st0" d="M23.7,107c7.8,7.8,18,11.7,28.3,11.7c2,0,3.9-0.3,5.8-0.6c-1.8,12.1,1.9,24.8,11.1,34.1l9.4,9.4
		c1.6,1.6,3.6,2.3,5.7,2.3s4.1-0.8,5.7-2.3l9.4-9.4c9.3-9.3,12.9-22,11.1-34.1c1.9,0.3,3.9,0.6,5.8,0.6c10.2,0,20.5-3.9,28.3-11.7
		l9.4-9.4c3.1-3.1,3.1-8.2,0-11.3l-9.4-9.4c-9.3-9.3-22-12.9-34.1-11.1c1.8-12.1-1.9-24.8-11.1-34.1l-9.4-9.4
		c-3.1-3.1-8.2-3.1-11.3,0L69,31.7c-9.3,9.3-12.9,22-11.1,34.1C45.7,64.1,33,67.7,23.7,77l-9.4,9.4c-3.1,3.1-3.1,8.2,0,11.3
		L23.7,107z M99,88.3c9.1-9.1,24.9-9.1,33.9,0l3.7,3.7l-3.7,3.7c-9.1,9.1-24.9,9.1-33.9,0L95.3,92L99,88.3z M80.3,43l3.7-3.7
		l3.7,3.7c4.5,4.5,7,10.6,7,17s-2.5,12.4-7,17L84,80.7L80.3,77c-4.5-4.5-7-10.6-7-17S75.8,47.6,80.3,43z M80.3,107l3.7-3.7l3.7,3.7
		c4.5,4.5,7,10.6,7,17c0,6.4-2.5,12.4-7,17l-3.7,3.7l-3.7-3.7c-4.5-4.5-7-10.6-7-17C73.3,117.6,75.8,111.6,80.3,107z M35,88.3
		c9.1-9.1,24.9-9.1,33.9,0l3.7,3.7L69,95.7c-9.1,9.1-24.9,9.1-33.9,0L31.3,92L35,88.3z"/>
	<path class="st0" d="M497.7,326.4l-9.4-9.4c-9.3-9.3-22-12.9-34.1-11.1c1.8-12.1-1.9-24.8-11.1-34.1l-9.4-9.4
		c-3.1-3.1-8.2-3.1-11.3,0l-9.4,9.4c-9.3,9.3-12.9,22-11.1,34.1c-12.1-1.8-24.8,1.9-34.1,11.1l-9.4,9.4c-3.1,3.1-3.1,8.2,0,11.3
		l9.4,9.4c7.8,7.8,18,11.7,28.3,11.7c2,0,3.9-0.3,5.8-0.6c-1.8,12.1,1.9,24.8,11.1,34.1l9.4,9.4c1.6,1.6,3.6,2.3,5.7,2.3
		s4.1-0.8,5.7-2.3l9.4-9.4c9.3-9.3,12.9-22,11.1-34.1c1.9,0.3,3.9,0.6,5.8,0.6c10.2,0,20.5-3.9,28.3-11.7l9.4-9.4
		C500.8,334.5,500.8,329.5,497.7,326.4z M413,335.7c-9.1,9.1-24.9,9.1-33.9,0l-3.7-3.7l3.7-3.7c9.1-9.1,24.9-9.1,33.9,0l3.7,3.7
		L413,335.7z M431.7,381l-3.7,3.7l-3.7-3.7c-4.5-4.5-7-10.6-7-17s2.5-12.4,7-17l3.7-3.7l3.7,3.7c4.5,4.5,7,10.6,7,17
		S436.2,376.4,431.7,381z M431.7,317l-3.7,3.7l-3.7-3.7c-4.5-4.5-7-10.6-7-17s2.5-12.4,7-17l3.7-3.7l3.7,3.7c4.5,4.5,7,10.6,7,17
		S436.2,312.4,431.7,317z M477,335.7c-9.1,9.1-24.9,9.1-33.9,0l-3.7-3.7l3.7-3.7c9.1-9.1,24.9-9.1,33.9,0l3.7,3.7L477,335.7z"/>
	<path class="st0" d="M412,20h16v16h-16V20z"/>
	<path class="st0" d="M428,36h16v16h-16V36z"/>
	<path class="st0" d="M396,36h16v16h-16V36z"/>
	<path class="st0" d="M412,52h16v16h-16V52z"/>
	<path class="st0" d="M28,204h16v16H28V204z"/>
	<path class="st0" d="M44,220h16v16H44V220z"/>
	<path class="st0" d="M12,220h16v16H12V220z"/>
	<path class="st0" d="M28,236h16v16H28V236z"/>
	<path class="st0" d="M460,100h16v16h-16V100z"/>
	<path class="st0" d="M476,116h16v16h-16V116z"/>
	<path class="st0" d="M444,116h16v16h-16V116z"/>
	<path class="st0" d="M460,132h16v16h-16V132z"/>
</g>
</svg>
