<?xml version="1.0" encoding="utf-8"?>
<!-- Generator: Adobe Illustrator 25.1.0, SVG Export Plug-In . SVG Version: 6.00 Build 0)  -->
<svg version="1.1" id="Capa_1" xmlns="http://www.w3.org/2000/svg" xmlns:xlink="http://www.w3.org/1999/xlink" x="0px" y="0px"
	 viewBox="0 0 512 512" style="enable-background:new 0 0 512 512;" xml:space="preserve">
<style type="text/css">
	.st0{fill:#CF639D;}
</style>
<g>
	<g>
		<g>
			<path class="st0" d="M414.3,295.9c-1.2-9.6-6.6-13.6-10.8-15.4c-6.5-2.7-18.7-3.9-49.1,14c2.8-11.5,1.7-23.8-3.6-34.9
				c10.5-13.1,22.4-31.1,20.8-44.4c-1.2-9.7-6.6-13.8-10.9-15.5c-24.6-10-80.6,34.9-101.4,51.6c0.7-7.2-0.3-14.6-3-21.6
				c10.2-12.5,22.7-30.6,21-43.9c-1.2-9.8-7.1-13.6-10.6-15c-13.9-5.7-36.5,6.8-52.3,16.7c-23.8,14.9-23.2,15.5-187.1,147.1
				c-11.1,8.9-17.4,22.1-17.4,36.3c0,15.6,0,86.9,0,102.7c0,15.8,12.8,28.6,28.6,28.6h15.4c4,0,7.2-3.2,7.2-7.2s-3.2-7.2-7.2-7.2
				H38.5c-7.8,0-14.2-6.4-14.2-14.2v-15.3l201.2-161.4c6.2,34.8,45.1,36.4,67.3,20.1c14-10.2,34.3-30.3,47.3-44.8
				c4,14.2-0.7,30-12.8,39.6c-0.1,0.1-30,24.1-219.3,175.9H87.6c-4,0-7.2,3.2-7.2,7.2s3.2,7.2,7.2,7.2c33.4,0,119.4,0,152.8,0
				c13.3,0,26.4-4.6,36.8-12.9l50.6-40.6c3.1-2.5,3.6-7,1.1-10.1s-7-3.6-10.1-1.1L268.2,478c-7.9,6.3-17.7,9.8-27.8,9.8H131.1
				l138.5-111.1c1.3,6.9,3.6,12.1,6.2,15.8c10.8,15.4,36.2,17.4,54.5,7.6c11-5.9,31.9-26.1,40.5-34.9c4.1,14.7-0.8,31.1-13.2,41
				L345,416.3c-3.1,2.5-3.6,7-1.1,10.1s7,3.6,10.1,1.1l12.7-10.2c19.1-15.3,25.2-42,15.2-63.9C390.7,343.8,416.8,315,414.3,295.9z
				 M222.2,199.6c28.9-18.1,37.7-16.1,39.1-15.5c0.4,0.2,1.3,0.5,1.7,3.4c2.3,18.4-54.7,73.7-70.2,84c-13.3,8.6-30.5,6.4-36.1-1.2
				c-4.1-5.5-4.1-13.7-4.5-17.6C182.5,228.5,199.4,213.8,222.2,199.6z M227.4,276.8c-12.1,9.7-191.6,153.4-203,162.6v-68.7
				c0-9.8,4.4-18.9,12-25l102.4-82.2c2.7,14,9.6,21.4,19.8,25.3c9.5,3.7,21.3,3.9,32.5-0.4c15.5-6,42.5-33.6,53.7-45.7
				C247.5,265.2,228.9,274.9,227.4,276.8z M284.4,305.2c-14.6,10.8-35.4,8.8-41.5-1.4c-2.9-4.9-3.9-12.1-4-17.7
				c31-25,50.3-41.5,74.4-56.5c30.9-19.3,40.3-17.1,41.8-16.4c0.5,0.2,1.6,0.7,2,4C359.7,236.9,301,293,284.4,305.2z M326.1,385.7
				c-12,7.7-32.3,8.5-39-2.5c-3.1-5.1-3.9-12.6-4-17.4c38.9-31.1,50.7-41.5,73.6-55.8c30.6-19,39.8-16.8,41.4-16.2
				c0.5,0.2,1.6,0.6,2,3.8C402.5,317.5,341.3,375.8,326.1,385.7z"/>
		</g>
	</g>
	<g>
		<g>
			<path class="st0" d="M494.9,48.8c4,0,7.2-3.2,7.2-7.2V29.3c0-10.7-8.7-19.4-19.4-19.4h-66.9c-10.7,0-19.4,8.7-19.4,19.4v45.8
				c0,9.7,6.5,18.3,15.8,20.9l15.1,4.3V160c0,4.4,1.4,8.4,3.7,11.8c-1,16.9-6.2,52.7-31.9,74.1c-7,5.8-6.9,16.7,0.2,22.5
				c12.4,9.1,16.4,16.5,26.7,16.5c7,0,13.4-3.8,16.6-10.2c7.7-15.4,20.6-48.8,21.7-101.3c3-3.6,4.8-8.3,4.8-13.3v-47.8
				c3.3,0.2,14.2,7.1,25-1.1c5-3.8,7.9-9.6,7.9-15.9v-20c0-4-3.2-7.2-7.2-7.2s-7.2,3.2-7.2,7.2v20c0,1.7-0.8,3.3-2.2,4.4
				c-3.7,2.8-6.2-0.1-21.6-3.9c-9.3-2.7-38.2-10.9-47.7-13.6c-3.1-0.9-5.3-3.8-5.3-7V29.3c0-2.7,2.3-5,5-5h66.9c2.7,0,5,2.3,5,5
				v12.3C487.7,45.6,490.9,48.8,494.9,48.8z M429.7,268.2c-1.2,2.4-4.3,3-6.4,1.3l-14.9-12.2c-0.1-0.1-0.1-0.3-0.1-0.3
				c22.3-18.6,33.2-47.5,36.4-76.4c1.6,0.3,3.3,0.3,4.9,0.2C447.6,226.1,436.5,254.7,429.7,268.2z M441.8,104.4l13,3.7V160
				c0,1.9-0.9,3.7-2.2,4.9c-4.3,3.7-10.7,0.6-10.7-4.9L441.8,104.4L441.8,104.4z"/>
		</g>
	</g>
</g>
</svg>
