<?xml version="1.0" encoding="utf-8"?>
<!-- Generator: Adobe Illustrator 25.1.0, SVG Export Plug-In . SVG Version: 6.00 Build 0)  -->
<svg version="1.1" id="Capa_1" xmlns="http://www.w3.org/2000/svg" xmlns:xlink="http://www.w3.org/1999/xlink" x="0px" y="0px"
	 viewBox="0 0 512 512" style="enable-background:new 0 0 512 512;" xml:space="preserve">
<style type="text/css">
	.st0{fill:#CF639D;}
</style>
<path class="st0" d="M243,280.7h12.2c4.1,0,7.5-3.3,7.5-7.5c0-4.1-3.3-7.5-7.5-7.5h-10.4v-18.2c0-4.1-3.4-7.5-7.5-7.5
	c-4.1,0-7.5,3.3-7.5,7.5v20C229.8,274.9,235.7,280.7,243,280.7z"/>
<path class="st0" d="M216.3,224.5c-2.9-2.9-7.7-2.9-10.6,0c-9.9,9.8-25.9,9.8-35.8,0c-2.9-2.9-7.7-2.9-10.6,0
	c-2.9,2.9-2.9,7.7,0,10.6c7.8,7.8,18.1,11.7,28.4,11.7s20.6-3.9,28.4-11.7C219.2,232.2,219.2,227.5,216.3,224.5z"/>
<path class="st0" d="M304.7,246.8c10.3,0,20.6-3.9,28.4-11.7c2.9-2.9,2.9-7.7,0-10.6s-7.7-2.9-10.6,0c-9.9,9.8-25.9,9.8-35.8,0
	c-2.9-2.9-7.7-2.9-10.6,0c-2.9,2.9-2.9,7.7,0,10.6C284.1,242.9,294.4,246.8,304.7,246.8z"/>
<path class="st0" d="M206.6,297.4c-2.9,2.9-2.9,7.7,0,10.6c10.9,10.8,25.1,16.2,39.4,16.2c14.4,0,28.8-5.5,39.8-16.4
	c2.9-2.9,2.9-7.7,0-10.6c-2.9-2.9-7.7-2.9-10.6,0c-16.1,16-42.2,16.1-58.1,0.2C214.2,294.4,209.5,294.4,206.6,297.4z"/>
<path class="st0" d="M414.1,179.8c12.8,5.1,15.8,8,20.9,20.9c1.6,4,5.4,6.6,9.7,6.6c4.3,0,8.1-2.6,9.7-6.6
	c5.1-12.8,8-15.8,20.9-20.9c4-1.6,6.6-5.4,6.6-9.7c0-4.3-2.6-8.1-6.6-9.7c-12.8-5.1-15.8-8-20.9-20.9c-1.6-4-5.4-6.5-9.7-6.5
	c-4.3,0-8.1,2.6-9.7,6.6c-5.1,12.8-8,15.8-20.9,20.9c-4,1.6-6.6,5.4-6.6,9.7C407.5,174.4,410.1,178.2,414.1,179.8z M444.6,154.4
	c3.9,7.2,8.5,11.8,15.7,15.7c-7.2,3.9-11.8,8.5-15.7,15.7c-3.9-7.2-8.5-11.8-15.7-15.7C436.1,166.2,440.7,161.6,444.6,154.4z"/>
<path class="st0" d="M30.9,180.1c12.8,5.1,15.8,8,20.9,20.9c1.6,4,5.4,6.6,9.7,6.6c4.3,0,8.1-2.6,9.7-6.6c5.1-12.8,8-15.8,20.9-20.9
	c4-1.6,6.6-5.4,6.6-9.7s-2.6-8.1-6.6-9.7c-12.8-5.1-15.8-8-20.9-20.9c-1.6-4-5.4-6.6-9.7-6.6c-4.3,0-8.1,2.6-9.7,6.6
	c-5.1,12.8-8,15.8-20.9,20.9c-4,1.6-6.6,5.4-6.6,9.7S26.9,178.5,30.9,180.1z M61.4,154.7c3.9,7.2,8.5,11.8,15.7,15.7
	c-7.2,3.9-11.8,8.5-15.7,15.7c-3.9-7.2-8.5-11.8-15.7-15.7C52.9,166.5,57.5,161.9,61.4,154.7z"/>
<path class="st0" d="M78.9,65.9c10,4,12.1,6.1,16.1,16.1c1.5,3.8,5.1,6.2,9.2,6.2c4.1,0,7.6-2.4,9.1-6.2c4-10,6.1-12.1,16.1-16.1
	c3.8-1.5,6.2-5.1,6.2-9.2c0-4.1-2.4-7.6-6.2-9.2c-10-4-12.1-6.1-16.1-16.1c-1.5-3.8-5.1-6.2-9.2-6.2c-4.1,0-7.7,2.4-9.2,6.2
	c-4,10-6.1,12.1-16.1,16.1c-3.8,1.5-6.2,5.1-6.2,9.1C72.7,60.9,75.2,64.4,78.9,65.9z M104.2,46.9c2.6,4.2,5.7,7.3,9.9,9.9
	c-4.2,2.6-7.3,5.7-9.9,9.9c-2.6-4.2-5.7-7.3-9.9-9.9C98.5,54.2,101.6,51.1,104.2,46.9z"/>
<path class="st0" d="M506.7,443.5l-4.9-4.8c-2.9-2.9-7.7-2.9-10.6,0c-2.9,2.9-2.9,7.7,0,10.6l3.4,3.4L461.1,486l-33.7-33.5
	c-1.9-1.9-4.7-2.6-7.2-1.9c-3.5,0.9-7,1.4-10.6,1.4c-10.6,0-20.6-4.1-28.1-11.6l-71.8-71.4c-0.6-0.6-0.9-1.3-0.9-2.1
	s0.3-1.5,0.9-2.1c1.2-1.2,3.2-1.2,4.4,0l40.7,40.4c2.9,2.9,7.6,2.9,10.6,0l6.1-6.1c1.4-1.4,2.2-3.3,2.2-5.3s-0.8-3.9-2.2-5.3
	l-54.2-53.9c-0.6-0.6-0.9-1.3-0.9-2.1c0-0.8,0.3-1.5,0.9-2.1c1.2-1.2,3.2-1.2,4.4,0l54.2,53.9c2.9,2.9,7.6,2.9,10.6,0l6.1-6.1
	c1.4-1.4,2.2-3.3,2.2-5.3c0-2-0.8-3.9-2.2-5.3l-54.2-53.9c-0.6-0.6-0.9-1.3-0.9-2.1c0-0.8,0.3-1.5,0.9-2.1c1.2-1.2,3.2-1.2,4.4,0
	l54.2,53.9c2.9,2.9,7.6,2.9,10.6,0l6.1-6.1c1.4-1.4,2.2-3.3,2.2-5.3c0-2-0.8-3.9-2.2-5.3l-40.7-40.4c-0.6-0.6-0.9-1.3-0.9-2.1
	c0-0.8,0.3-1.5,0.9-2.1c1.2-1.2,3.2-1.2,4.4,0l52.2,51.9c2.1,2.1,5.4,2.8,8.2,1.6c2.8-1.2,4.6-3.9,4.6-6.9V330
	c0-3.1,2.6-5.7,5.8-5.7c3.2,0,5.8,2.6,5.8,5.7v47c0,1.4,0.4,2.7,1.1,3.9c5.7,9.2,7.3,20.6,4.4,31.1c-0.7,2.6,0,5.4,1.9,7.3l5.2,5.2
	c2.9,2.9,7.7,2.9,10.6,0c2.9-2.9,2.9-7.7,0-10.6l-2.3-2.3c2.4-12.5,0.2-25.5-6-36.6V330c0-11.4-9.3-20.7-20.8-20.7
	c-11.4,0-20.7,9.3-20.8,20.7v0.7L403.2,307c0.4-2.6,0.6-5.3,0.6-8c0-9-2.3-17.5-6.4-24.9c2.5-4.2,4-9,4-14.2v-24.5
	c0-10.7-6.2-20-15.2-24.6v-29.2c0-36.6-14.4-67.6-41.6-89.7c-6.8-5.5-14.4-10.4-22.5-14.5c-3.8-38.3-36.4-68.3-75.9-68.3
	c-39.5,0-72.1,30-75.9,68.3c-8.1,4.1-15.7,9-22.5,14.5c-27.2,22-41.6,53-41.6,89.7v29.2c-9,4.6-15.2,13.9-15.2,24.6V260
	c0,7.8,3.3,14.9,8.6,19.9L97,319.7c-2.5,0.4-4.8,1.6-6.6,3.4l-10,9.9c-2.4,2.4-3.7,5.5-3.7,8.8c0,3,1,5.7,2.9,8L4.3,432.7
	c-3.1,3.2-4.8,7.3-4.8,11.8c0,4.5,1.8,8.7,5,11.9c3.2,3.2,7.4,4.9,11.9,4.9c4.4,0,8.6-1.7,11.8-4.8l83.4-74.9c2.3,1.9,5.1,3,8.1,3
	c3.3,0,6.5-1.3,8.8-3.6l10-9.9c1.8-1.8,3-4.1,3.5-6.5l43.3-2.8c1.2-0.1,2.4-0.3,3.6-0.7c6.4,3,13.2,5.3,20.2,7v13.9h-49.9
	c-44.8,0-81.2,36.2-81.2,80.8v26.6c0,7,5.7,12.7,12.7,12.7h311.3c7,0,12.7-5.7,12.7-12.7v-22.3c1.8-0.2,3.5-0.4,5.3-0.7l32.2,32
	c2.4,2.4,5.7,3.8,9.1,3.8c3.4,0,6.7-1.3,9.1-3.8l36.4-36.2c2.4-2.4,3.8-5.8,3.8-9.2C510.5,449.3,509.1,445.9,506.7,443.5z
	 M283.5,367.8c3.6-0.8,7.1-1.9,10.5-3.1c-0.1,0.7-0.1,1.5-0.1,2.2c0,4.8,1.9,9.3,5.3,12.7l2,2h-17.7V367.8z M387.7,291.6
	c-3.4-3.4-7.9-5.2-12.7-5.2c-4.8,0-9.3,1.9-12.7,5.3c-3.1,3.1-4.9,7-5.2,11.3l-3.9-3.8c-3.4-3.4-7.9-5.3-12.7-5.3
	c-4.8,0-9.3,1.9-12.7,5.3c-3.4,3.4-5.3,7.9-5.3,12.7c0,1.1,0.1,2.2,0.3,3.2c-1.1-0.2-2.2-0.3-3.3-0.3c-0.6,0-1.1,0-1.7,0.1
	c-2.3-4.8-3.5-10.1-3.5-15.7c0-20.5,16.8-37.1,37.4-37.1c18.2,0,33.4,13,36.7,30.2L387.7,291.6z M386.5,260c0,0.1,0,0.2,0,0.3
	c-6.1-5.5-13.6-9.6-21.8-11.7v-25.9h8.7c7.2,0,13.1,5.7,13.1,12.7V260z M246.2,24.2c28.8,0,52.9,19.8,59.6,46.3
	c-18.1-6.5-38.3-10-59.6-10s-41.5,3.4-59.6,10C193.3,43.9,217.5,24.2,246.2,24.2z M106,235.5c0-7,5.9-12.7,13.1-12.7h8.7v39.7
	c-6,0.1-12.1,1-18.1,2.5c-0.8,0.2-1.6,0.5-2.3,0.8c-0.9-1.7-1.4-3.7-1.4-5.8V235.5z M18,445.5c-0.1,0.1-0.2,0.2-0.3,0.3
	c-0.5,0.5-1,0.6-1.4,0.6c-0.4,0-0.9-0.1-1.4-0.6c-0.4-0.4-0.5-0.9-0.5-1.3s0.1-0.8,0.5-1.3c0.1-0.1,0.2-0.2,0.3-0.3l75-82.4
	l10.6,10.6L18,445.5z M119.6,368.6l-26.8-26.7l6.5-6.4l26.8,26.7L119.6,368.6z M182.8,346.8l-47.8,3.1l-0.8-0.8l26.8-15.8
	c3.6-2.1,4.7-6.7,2.6-10.2c-2.1-3.6-6.7-4.7-10.2-2.6l-30,17.7l17.8-29.8c2.1-3.6,1-8.1-2.6-10.3c-3.5-2.1-8.1-1-10.3,2.6l-16,26.7
	l-0.8-0.8l3.1-47.5c5-1.2,10.1-1.7,15-1.7c15.3,0,29.2,5.5,39.3,15.5C182.4,306.3,187.6,326.3,182.8,346.8z M179.5,282.3
	c-9.9-9.8-22.6-16.3-36.7-18.7v-69.4h29.4c4.1,0,7.5-3.3,7.5-7.5c0-4.1-3.3-7.5-7.5-7.5h-30.7c-7.5,0-13.6,6.1-13.6,13.6v15h-6.7
	v-26.1c0-31.9,12.5-58.9,36.1-78c22.4-18.2,54.1-28.2,89-28.2s66.6,10,89,28.2c23.6,19.1,36.1,46.1,36.1,78v26.1h-6.7v-15
	c0-7.5-6.1-13.6-13.6-13.6h-32.1c-13.4,0-26.2-7.1-33.4-18.5c-2.5-4-6.8-6.4-11.6-6.4c-4.7,0-9.1,2.4-11.6,6.4
	c-7.2,11.4-20,18.5-33.4,18.5h-21.9c-4.1,0-7.5,3.3-7.5,7.5c0,4.1,3.4,7.5,7.5,7.5H229c17.9,0,34.9-9.1,45-23.8
	c10.1,14.7,27.1,23.8,45,23.8h30.8V247c-28,1-50.5,23.9-50.5,52c0,8.3,2,16.2,5.5,23.2c-2.2,3-3.3,6.6-3.3,10.4
	c0,3.9,1.3,7.7,3.6,10.7c-13.4,7.8-29.1,12.3-45.8,12.3h-25.8c-12.6,0-24.6-2.6-35.6-7.2C203,323.5,196.3,299,179.5,282.3z
	 M209.3,396.7c8,0,14.6-6.5,14.6-14.5v-11.9c3.1,0.3,6.2,0.4,9.4,0.4h25.8c3.2,0,6.3-0.1,9.4-0.4v11.9c0,8,6.5,14.5,14.6,14.5h1.8
	l-38.7,59.2l-38.7-59.2H209.3z M92.8,486.8v-24.3c0-36.3,29.7-65.8,66.2-65.8h0.8l58.9,90.1H92.8z M273.7,486.8l16.7-25.6
	c2.3-3.5,1.3-8.1-2.2-10.4c-3.5-2.3-8.1-1.3-10.4,2.2l-17.1,26.2c-2.7,4.1-6.9,6.8-11.7,7.7h-5.9c-4.8-0.8-9-3.6-11.6-7.7
	l-53.9-82.5h11.9l50.3,77c1.4,2.1,3.7,3.4,6.3,3.4c2.5,0,4.9-1.3,6.3-3.4l50.3-77h11.9l-17.9,27.3c-2.3,3.5-1.3,8.1,2.2,10.4
	c3.5,2.3,8.1,1.3,10.4-2.2l16.8-25.7l44.8,44.5c7.9,7.9,17.9,13,28.7,15v20.7H273.7z"/>
</svg>
