<?xml version="1.0" encoding="utf-8"?>
<!-- Generator: Adobe Illustrator 25.1.0, SVG Export Plug-In . SVG Version: 6.00 Build 0)  -->
<svg version="1.1" id="Capa_1" xmlns="http://www.w3.org/2000/svg" xmlns:xlink="http://www.w3.org/1999/xlink" x="0px" y="0px"
	 viewBox="0 0 512 512" style="enable-background:new 0 0 512 512;" xml:space="preserve">
<style type="text/css">
	.st0{fill:#CF639D;}
</style>
<g>
	<g>
		<path class="st0" d="M264.3,207.4c-29.9-44.8-12-173.4-38.9-181.1c-23.9-7.2-98.1,41.9-134.5,107c-36.5,65.2-81.3,162.6,9.6,224.2
			c49.6,38.3-14.3,56.2-25.7,25.7c-1.1,62,59.9,63.6,68.8,19.7c6.2-30.5-30.9-94.6-42.4-125.6C73,202,156.1,101,156.1,101
			S82,223,111.9,282.2c102.3,150.7,34.2,147.1,7.8,165c99.9,4.8,134.2-83.3,139.9-95.1c13.1-35.3,5.1-98.1-27.5-127.9
			c-7.8-6.9-14.9,1.5-42,0s-12.4-26.9-12.4-26.9s-9.3-7.9-9.6-11.4c-0.2-3.4,8.4-6,8.4-6s-8.4-4.5-9-8.4s9-13.2,9-13.2
			s-12.6-5.8-12.9-11.7c-0.2-5.8,13.8-15.4,27.2-43.3c10.2-21.1,9.6-56.2,25.7-64.3c9.6,16.5-29.9,142,34.7,182.1
			c12,6.6,88.5,66.4,25.7,143.5C346.2,316.2,283.1,235,264.3,207.4z"/>
		<path class="st0" d="M315.1,17.9c29.9,35.3-0.6,168.6,70,212.9c95.6,68.2,28.2,160.1,14.3,184.8c23.9-69.4,22.1-105.2,10.8-133.3
			c-11.4-28.1-83.1-102.8-94.5-140.5C304.4,104,300.8,0,245.7,18.9c50.9,64.2,20.1,123,89.4,211.2c69.4,88.2,55.3,212.3-2.7,240.9
			c90.6-119.9,10.8-213.4-12.6-250.5c-12.3-19.6-38.3-35.9-40.7-81.3c-2.4-45.5-34-124.1-46.6-119.6c32.9,65.2-1.2,156.7,72.3,244.5
			c50.2,55,72.4,174.6-12.5,233.8c89.1-3.6,140.5-98.6,162-160.2c28.7-85.5-53.2-159-68.8-188.9C370.1,118.9,361.7,18.5,315.1,17.9z
			"/>
		<path class="st0" d="M429.9,114.4c-28.7-45.7-68.5-72.6-83.4-83.8c40.8,70.4,38.1,101.8,52.9,123.3s40.8,26.5,65.5,103.4
			C465.8,246.4,458.6,160.2,429.9,114.4z"/>
		<path class="st0" d="M308.6,68.7c2,11.2,11.9,69,19.5,79.8c-4.9-70.8,1.8-66.8-4-93.3s-16.2-40.8-50.2-41.3
			C307.9,42.7,306.6,57.5,308.6,68.7z"/>
	</g>
</g>
</svg>
