<?xml version="1.0" encoding="utf-8"?>
<!-- Generator: Adobe Illustrator 25.1.0, SVG Export Plug-In . SVG Version: 6.00 Build 0)  -->
<svg version="1.1" id="Capa_1" xmlns="http://www.w3.org/2000/svg" xmlns:xlink="http://www.w3.org/1999/xlink" x="0px" y="0px"
	 viewBox="0 0 512 512" style="enable-background:new 0 0 512 512;" xml:space="preserve">
<style type="text/css">
	.st0{fill:#CF639D;}
</style>
<g>
	<g>
		<path class="st0" d="M220.1,307.5c-5.5-8.4-12.6-15.8-18.6-23.9c-4.2-5.7-8.7-11.6-11.1-18.2c-7.8-21-4-40.6,10.6-57.2
			c7.1-8.1,15.5-15,23.3-22.4c11.1-10.3,18.3-22.4,18.9-38.4c0.6-17-7.7-30.8-22.9-35c-7.7-2.1-23.9-3.3-23.9-2.9
			c-23.2,1.1-45.5,6-66,17.7c-18.6,10.7-32,25.9-35.7,48.2c-3.1,18.7-1.4,37.3,5.2,54.9c5.9,15.8,13.3,30.9,20.3,46.3
			c8.2,18,13.6,36.7,14,56.7c0.1,5.2,0.3,10.4,1.3,15.4c3.2,16.9,11.1,30.5,27,37.9c9.6,4.5,19.7,3.6,29.7,2.1
			c18.8-2.7,31.2-13.9,34.9-31.5C230.9,339.8,230.2,322.7,220.1,307.5z"/>
		<path class="st0" d="M247,83.8c7-8.6,9.7-18.7,10.1-30.9c-0.2-1.8-0.4-4.8-1-7.7c-0.5-2.5-1.2-4.9-2.1-7.2
			c-5.6-15-19.7-18.2-31-7.1s-14.9,35.5-7.5,49.7C222.9,94.6,237,96.1,247,83.8z"/>
		<path class="st0" d="M193.3,82.8c8.6-8.6,10.6-25.7,4.2-36.1c-5.7-9.2-15.7-9.8-22.4-1.1c-4.4,5.7-6.2,12.3-6.1,19.4
			c-0.1,6.2,1.4,11.4,4.3,15.7C178.4,88.5,186.8,89.3,193.3,82.8z"/>
		<path class="st0" d="M155.6,88.4c3.6-4.5,4.7-9.8,4.9-15.4c-0.3-5.8-1.4-11.2-5.2-15.7c-4.6-5.5-11.2-5.4-15.8,0
			c-6.7,7.8-6.8,23.2-0.2,31.1C144.1,94.3,150.9,94.3,155.6,88.4z"/>
		<path class="st0" d="M130.7,98.7c3.9-7,1.6-19-4.7-24c-4.7-3.8-10.3-2.7-12.9,2.7c-1.2,2.5-1.6,5.4-2.3,8.2
			c0.6,6.3,2.4,11.8,7.2,15.7C122.6,105.1,127.8,103.9,130.7,98.7z"/>
		<path class="st0" d="M110,117.3c1.8-2.8,2.5-6.3,3.8-9.7c-1.2-3.3-1.9-6.5-3.6-9.1c-2.7-4.3-7.7-4.3-11-0.3
			c-4.1,4.8-4.3,14-0.6,19.1C101.9,121.8,107,122,110,117.3z"/>
		<path class="st0" d="M321,211c0-0.4-15.8-3.6-23.9-3.6c-15.8,0-27.4,11.1-31.3,27.6c-3.7,15.5,0.1,29.1,8,42
			c5.6,9.2,11.8,18.1,16.5,27.8c9.7,19.9,8.1,39.8-5,57.9c-4.1,5.7-10.1,10.1-15.6,14.6c-7.9,6.3-16.7,11.5-24.3,18.1
			c-13.8,12-19,28.3-20.1,46.2c-1.1,18.1,7.8,32.1,25.3,39.7c9.3,4.1,18.8,7.6,29.2,5.9c17.3-2.9,28.6-14,36.2-29.4
			c2.3-4.6,3.9-9.6,5.3-14.5c5.7-19.2,15.9-35.8,28.6-51c10.8-12.9,22-25.6,31.9-39.2c11-15.2,17.6-32.7,19.6-51.6
			c2.3-22.4-6.5-40.6-21.6-55.9C363.3,228.9,343.1,218.3,321,211z"/>
		<path class="st0" d="M310.2,178c11-11.7,13.9-36.1,6-49.9c-7.9-13.8-22.3-14.4-31.7-1.4c-1.5,2-2.8,4.2-3.9,6.4
			c-1.3,2.7-2.3,5.5-3,7.2c-2.9,11.8-3,22.3,1.5,32.4C285.4,187.2,299.4,189.5,310.2,178z"/>
		<path class="st0" d="M351,189.4c3.9-3.3,6.7-8,8.3-14c2-6.9,2-13.8-0.7-20.4c-4.2-10.2-13.9-12.3-21.9-4.9
			c-8.9,8.3-11.6,25.3-5.6,35.9C335.7,194,343.9,195.4,351,189.4z"/>
		<path class="st0" d="M381.6,205.8c8.4-5.9,12.4-20.7,8.1-30c-3-6.5-9.3-8.2-15.2-4.2c-4.9,3.3-7.4,8.3-9.2,13.8
			c-1.2,5.5-1.6,10.9,0.7,16.1C369,208.3,375.4,210.1,381.6,205.8z"/>
		<path class="st0" d="M387.2,218c1.4,5.8,6.2,8.3,11.6,6c5.7-2.5,8.8-7.3,11.1-13.2c0-2.8,0.4-5.7-0.1-8.5c-1.1-6-6.2-8.5-11.7-6.1
			C390.7,199.3,385.3,210.2,387.2,218z"/>
		<path class="st0" d="M417.7,225.9c-2.1-4.7-6.9-6.1-10.7-2.6c-2.3,2.1-3.8,5-5.9,7.8c0.3,3.6,0.1,7.2,1,10.3c1.6,5.3,6.6,6.5,11,3
			C418.2,240.6,420.3,231.6,417.7,225.9z"/>
	</g>
</g>
</svg>
